<svg width="80" height="82" viewBox="0 0 80 82" fill="none" xmlns="http://www.w3.org/2000/svg">
<path d="M76.4696 46.7611C75.7153 46.7002 75.3681 45.1105 75.1466 45.1654C74.7336 45.2689 75.8949 51.0368 75.3861 51.1891C74.9551 51.3231 73.9972 47.2423 72.9257 47.2789C70.9981 47.3398 73.3867 60.5567 66.1433 68.1579C63.623 70.8074 63.0124 69.5406 55.6254 75.2232C52.5425 77.5986 49.0465 80.5892 48.0228 79.7608C47.4721 79.3101 48.1904 78.2016 47.6277 77.3428C46.5622 75.7105 42.731 77.757 38.2293 77.9945C29.8724 78.4391 23.5509 72.4276 20.5758 75.272C20.043 75.7775 19.3845 76.7946 18.8876 76.6119C18.313 76.3987 18.738 74.87 18.1274 73.2011C17.5527 71.6419 16.5949 71.386 15.1283 69.8816C12.0633 66.7388 12.4165 63.9127 10.8421 63.73C9.02824 63.5168 7.49576 67.1408 6.84326 66.8119C6.10096 66.4343 7.83698 61.5617 7.44188 61.4033C7.06475 61.251 5.55022 65.7704 4.54453 65.5816C3.4251 65.3745 3.13776 59.3751 4.0776 54.1492C4.32903 52.7423 4.42479 52.7727 4.58642 51.5911C5.20899 47.1388 4.47269 42.5524 3.47298 42.4062C2.87436 42.321 2.20389 44.2578 2.03029 44.1908C1.80281 44.0934 2.89231 40.4998 4.10153 37.491C9.45326 24.1523 19.4384 16.4292 17.9538 14.4314C17.2594 13.4995 14.6134 14.5715 14.5177 14.1817C14.386 13.6823 18.8996 12.1596 22.9044 10.509C29.4833 7.79859 29.5193 6.62917 35.4097 4.33904C41.1446 2.11592 43.9881 1.99411 45.3769 2.0002C46.64 2.00629 49.1482 2.04282 51.9797 3.1087C61.0789 6.52561 65.5566 17.5742 66.8676 20.8145C67.0352 21.2226 67.3166 21.9961 67.9092 22.9768C69.8188 26.1379 72.5127 27.4656 72.2672 27.9468C72.0637 28.3427 70.2798 27.3925 69.8907 27.9102C69.334 28.6411 72.2313 31.2906 74.9072 35.6942C75.5657 36.7784 79.2652 42.8631 77.6668 45.7135C77.5651 45.8962 77.0562 46.8038 76.4696 46.7611Z" fill="#D0E5F6" stroke="#231F20" stroke-width="2.36" stroke-miterlimit="10"/>
<path d="M46.9567 61.5009C47.0106 61.8116 47.0405 62.1344 47.0405 62.4633C47.0405 66.7938 42.0958 70.3021 36.0018 70.3021C29.9078 70.3021 24.9571 66.7938 24.9571 62.4633C24.9571 61.9029 25.0409 61.367 25.1846 60.8432C20.4614 58.4069 17.3965 54.5149 17.3965 50.1417C17.3965 42.7719 26.0766 36.7969 36.78 36.7969C47.4835 36.7969 56.1696 42.7719 56.1696 50.1417C56.1696 54.9473 52.482 59.1499 46.9567 61.5009Z" fill="#FEEDE4" stroke="#231F20" stroke-width="2.36" stroke-miterlimit="10"/>
<path opacity="0.3" d="M52.1753 55.7283C52.1812 54.3458 50.4064 53.2171 48.2112 53.2074C46.0159 53.1976 44.2315 54.3105 44.2256 55.693C44.2197 57.0755 45.9945 58.2042 48.1897 58.2139C50.3849 58.2237 52.1693 57.1108 52.1753 55.7283Z" fill="#E85AA1"/>
<path opacity="0.3" d="M30.1264 55.3006C30.1324 53.918 28.3576 52.7894 26.1623 52.7796C23.9671 52.7699 22.1827 53.8827 22.1768 55.2653C22.1708 56.6478 23.9456 57.7765 26.1409 57.7862C28.3361 57.7959 30.1205 56.6831 30.1264 55.3006Z" fill="#E85AA1"/>
<path d="M29.8618 50.4307C29.8826 47.7633 27.7929 45.5835 25.1943 45.5619C22.5958 45.5404 20.4724 47.6854 20.4517 50.3528C20.4309 53.0202 22.5206 55.2001 25.1191 55.2216C27.7176 55.2431 29.841 53.0981 29.8618 50.4307Z" fill="#231F20" stroke="#231F20" stroke-width="0.64" stroke-miterlimit="10"/>
<path d="M27.8261 51.4006C27.8597 50.3281 27.1959 49.4362 26.3434 49.4084C25.4908 49.3807 24.7724 50.2277 24.7387 51.3002C24.705 52.3727 25.3689 53.2647 26.2214 53.2924C27.074 53.3201 27.7924 52.4731 27.8261 51.4006Z" fill="white" stroke="#231F20" stroke-width="0.64" stroke-miterlimit="10"/>
<path d="M24.8186 49.8901C24.8227 49.362 24.408 48.9305 23.8923 48.9262C23.3765 48.922 22.9551 49.3467 22.9509 49.8748C22.9467 50.4029 23.3614 50.8345 23.8772 50.8387C24.3929 50.8429 24.8144 50.4182 24.8186 49.8901Z" fill="white" stroke="#231F20" stroke-width="0.64" stroke-miterlimit="10"/>
<path d="M53.0903 51.2246C53.1111 48.5572 51.0214 46.3774 48.4229 46.3559C45.8243 46.3344 43.701 48.4793 43.6802 51.1468C43.6594 53.8142 45.7491 55.994 48.3476 56.0155C50.9462 56.037 53.0695 53.8921 53.0903 51.2246Z" fill="#231F20" stroke="#231F20" stroke-width="0.64" stroke-miterlimit="10"/>
<path d="M48.276 52.7903C48.8939 52.1872 48.8049 51.0724 48.0771 50.3005C47.3492 49.5286 46.2583 49.3917 45.6404 49.9948C45.0224 50.598 45.1115 51.7127 45.8393 52.4846C46.5671 53.2566 47.6581 53.3934 48.276 52.7903Z" fill="white" stroke="#231F20" stroke-width="0.64" stroke-miterlimit="10"/>
<path d="M50.5568 50.5903C50.561 50.0622 50.1463 49.6306 49.6306 49.6264C49.1148 49.6222 48.6934 50.0469 48.6892 50.575C48.685 51.1031 49.0997 51.5347 49.6155 51.5389C50.1312 51.5431 50.5527 51.1184 50.5568 50.5903Z" fill="white" stroke="#231F20" stroke-width="0.64" stroke-miterlimit="10"/>
<path d="M29.9082 59.9777C31.2731 60.6172 33.3743 61.3725 35.9903 61.4029C39.588 61.4456 42.3537 60.1056 43.8323 59.2285" stroke="#231F20" stroke-width="1.09" stroke-miterlimit="10"/>
<path d="M39.582 60.9521L41.9107 64.034C42.1322 62.6453 42.3596 61.2627 42.5811 59.874C42.0065 60.1298 41.3899 60.3735 40.7314 60.5988C40.3363 60.7328 39.9532 60.8486 39.582 60.9521Z" fill="white" stroke="#231F20" stroke-width="1.09" stroke-miterlimit="10"/>
<path d="M77.0392 45.4338C76.9434 45.6165 76.4346 46.5301 75.8479 46.4875C75.0936 46.4205 74.7464 44.8369 74.5309 44.8795C74.1119 44.9892 75.2732 50.7571 74.7704 50.9094C74.3394 51.0495 73.3756 46.9747 72.31 47.0052C70.3824 47.06 72.771 60.2709 65.5276 67.8782C63.0014 70.5277 62.3968 69.2608 55.0157 74.9435C51.9268 77.325 48.4308 80.3155 47.4011 79.4811C46.8564 79.0304 47.5807 77.9279 47.012 77.0691C45.9465 75.4368 42.1093 77.4772 37.6076 77.7209C29.2508 78.1594 22.9352 72.1417 19.9541 74.9983C19.4213 75.5038 18.7628 76.521 18.2659 76.3261C17.6913 76.1251 18.1103 74.5902 17.4997 72.9152C16.925 71.3621 15.9612 71.1002 14.4946 69.6019C14.4527 69.5593 14.4108 69.5166 14.3809 69.474C17.805 69.8394 22.9891 73.2624 29.3645 72.9152C33.8662 72.6777 37.7094 70.6312 38.7689 72.2636C39.3316 73.1345 38.6133 74.237 39.164 74.6877C40.1817 75.5221 43.6777 72.5194 46.7666 70.1501C54.1477 64.4674 54.7583 65.7343 57.2785 63.0848C64.5219 55.4835 62.1393 42.2666 64.0609 42.2057C65.1265 42.1752 66.0903 46.2499 66.5213 46.122C67.0241 45.9637 65.8628 40.2018 66.2818 40.0922C66.5033 40.0374 66.8445 41.6392 67.5988 41.688C68.1855 41.7306 68.7003 40.8292 68.8021 40.6464C70.3944 37.796 66.6949 31.7113 66.0364 30.6211C63.3546 26.2235 60.4632 23.5741 61.0199 22.8432C61.409 22.3255 63.1989 23.2695 63.3965 22.8736C63.6359 22.3925 60.9481 21.0708 59.0325 17.9097C58.4458 16.923 58.1644 16.1494 57.9968 15.7414C57.057 13.4025 54.447 6.97067 49.64 2.29297C50.1847 2.43306 50.7594 2.61578 51.3461 2.82896C60.4452 6.25196 64.9289 17.2945 66.2339 20.5348C66.3896 20.955 66.6709 21.7164 67.2696 22.7031C69.1852 25.8642 71.879 27.1859 71.6336 27.667C71.424 28.0629 69.6461 27.1189 69.257 27.6366C68.7003 28.3675 71.5917 31.017 74.2735 35.4206C74.932 36.5047 78.6315 42.5833 77.0272 45.4399L77.0392 45.4338Z" fill="#76BEEA"/>
<path d="M76.4696 46.7611C75.7153 46.7002 75.3681 45.1105 75.1466 45.1654C74.7336 45.2689 75.8949 51.0368 75.3861 51.1891C74.9551 51.3231 73.9972 47.2423 72.9257 47.2789C70.9981 47.3398 73.3867 60.5567 66.1433 68.1579C63.623 70.8074 63.0124 69.5406 55.6254 75.2232C52.5425 77.5986 49.0465 80.5892 48.0228 79.7608C47.4721 79.3101 48.1904 78.2016 47.6277 77.3428C46.5622 75.7105 42.731 77.757 38.2293 77.9945C29.8724 78.4391 23.5509 72.4276 20.5758 75.272C20.043 75.7775 19.3845 76.7946 18.8876 76.6119C18.313 76.3987 18.738 74.87 18.1274 73.2011C17.5527 71.6419 16.5949 71.386 15.1283 69.8816C12.0633 66.7388 12.4165 63.9127 10.8421 63.73C9.02824 63.5168 7.49576 67.1408 6.84326 66.8119C6.10096 66.4343 7.83698 61.5617 7.44188 61.4033C7.06475 61.251 5.55022 65.7704 4.54453 65.5816C3.4251 65.3745 3.13776 59.3751 4.0776 54.1492C4.32903 52.7423 4.42479 52.7727 4.58642 51.5911C5.20899 47.1388 4.47269 42.5524 3.47298 42.4062C2.87436 42.321 2.20389 44.2578 2.03029 44.1908C1.80281 44.0934 2.89231 40.4998 4.10153 37.491C9.45326 24.1523 19.4384 16.4292 17.9538 14.4314C17.2594 13.4995 14.6134 14.5715 14.5177 14.1817C14.386 13.6823 18.8996 12.1596 22.9044 10.509C29.4833 7.79859 29.5193 6.62917 35.4097 4.33904C41.1446 2.11592 43.9881 1.99411 45.3769 2.0002C46.64 2.00629 49.1482 2.04282 51.9797 3.1087C61.0789 6.52561 65.5566 17.5742 66.8676 20.8145C67.0352 21.2226 67.3166 21.9961 67.9092 22.9768C69.8188 26.1379 72.5127 27.4656 72.2672 27.9468C72.0637 28.3427 70.2798 27.3925 69.8907 27.9102C69.334 28.6411 72.2313 31.2906 74.9072 35.6942C75.5657 36.7784 79.2652 42.8631 77.6668 45.7135C77.5651 45.8962 77.0562 46.8038 76.4696 46.7611Z" stroke="#231F20" stroke-width="2.36" stroke-miterlimit="10"/>
<path d="M48.9864 73.2007C48.9146 73.2251 48.6332 73.3164 48.4237 73.1459C48.1304 72.9083 48.1842 72.3297 48.3518 71.9887C48.5853 71.5136 49.1361 71.3247 49.5731 71.4344C50.2136 71.5927 50.4351 72.3297 50.447 72.3785C50.6326 73.1155 50.8122 73.8463 50.9978 74.5833C51.1235 75.0279 51.0217 75.503 50.7464 75.7893C50.3812 76.1669 49.7646 76.1547 49.3575 75.704C49.2917 75.6066 49.0882 75.2776 49.1241 74.8208C49.142 74.6259 49.1959 74.4676 49.2438 74.364C49.3396 74.1996 49.5012 73.9499 49.7526 73.7367C50.4411 73.1581 50.9798 73.5052 51.8897 72.9327C52.3207 72.6586 52.5602 72.348 52.6979 72.0556C52.7817 71.8851 52.9194 71.5806 52.8535 71.2273C52.8356 71.1481 52.7937 70.941 52.638 70.7827C52.3926 70.5451 52.0334 70.5756 51.788 70.6974C51.3869 70.9045 51.2791 71.3796 51.2672 71.4405C51.2253 71.7389 51.1774 72.1775 51.2133 72.7013C51.2552 73.3956 51.339 74.7843 52.1411 75.2533C52.7817 75.6248 53.7036 75.3507 53.8353 74.9427C53.8951 74.7478 53.7515 74.6016 53.542 73.9621C53.4162 73.5783 53.3384 73.2494 53.2965 73.0302C52.9912 73.0119 52.6979 73.1825 52.5422 73.4809C52.3686 73.8159 52.3926 74.2483 52.6201 74.5468" stroke="#231F20" stroke-width="0.58" stroke-linecap="round" stroke-linejoin="round"/>
</svg>
