<svg width="104" height="90" viewBox="0 0 104 90" fill="none" xmlns="http://www.w3.org/2000/svg">
<path d="M99.904 51.4142C98.9123 51.3469 98.4559 49.592 98.1647 49.6525C97.6216 49.7668 99.1484 56.1344 98.4795 56.3025C97.9128 56.4504 96.6536 51.9454 95.2449 51.9857C92.7107 52.053 95.8509 66.6438 86.3281 75.0352C83.0148 77.9601 82.2121 76.5616 72.5004 82.835C68.4473 85.4573 63.8512 88.7588 62.5055 87.8443C61.7814 87.3467 62.7258 86.123 61.986 85.1749C60.5852 83.3729 55.5483 85.6321 49.63 85.8944C38.6434 86.3852 30.3327 79.7487 26.4213 82.8888C25.7208 83.4469 24.8551 84.5697 24.2019 84.368C23.4464 84.1327 24.0052 82.445 23.2024 80.6027C22.4469 78.8813 21.1877 78.5989 19.2595 76.9381C15.23 73.4686 15.6944 70.3487 13.6245 70.147C11.2399 69.9117 9.22519 73.9124 8.36735 73.5493C7.39147 73.1324 9.67378 67.7533 9.15436 67.5785C8.65854 67.4104 6.66742 72.3995 5.34525 72.191C3.87355 71.9624 3.49579 65.3394 4.73139 59.5703C5.06193 58.0171 5.18783 58.0507 5.40033 56.7462C6.21881 51.8311 5.25081 46.768 3.93651 46.6066C3.1495 46.5125 2.26805 48.6507 2.03982 48.5767C1.74076 48.4691 3.1731 44.502 4.76285 41.1804C11.7987 26.455 24.9259 17.9291 22.9742 15.7237C22.0612 14.695 18.5827 15.8784 18.4568 15.448C18.2836 14.8967 24.2176 13.2157 29.4827 11.3935C38.1319 8.40137 38.1791 7.11038 45.9233 4.58219C53.4628 2.12797 57.201 1.99349 59.0269 2.00022C60.6875 2.00694 63.985 2.04727 67.7076 3.22395C79.67 6.99606 85.5568 19.1932 87.2804 22.7703C87.5007 23.2208 87.8707 24.0748 88.6498 25.1573C91.1603 28.6471 94.7019 30.1129 94.3792 30.6441C94.1116 31.0811 91.7663 30.0322 91.2548 30.6037C90.5229 31.4106 94.3319 34.3355 97.8499 39.1968C98.7156 40.3937 103.579 47.1109 101.478 50.2577C101.344 50.4594 100.675 51.4613 99.904 51.4142Z" fill="#D0E5F6" stroke="#231F20" stroke-width="2.36" stroke-miterlimit="10"/>
<path d="M61.1045 67.6862C61.1753 68.0291 61.2147 68.3855 61.2147 68.7486C61.2147 73.5293 54.714 77.4022 46.7023 77.4022C38.6906 77.4022 32.1821 73.5293 32.1821 68.7486C32.1821 68.13 32.2922 67.5383 32.4811 66.96C26.2716 64.2705 22.2422 59.9739 22.2422 55.1461C22.2422 47.0102 33.6538 40.4141 47.7254 40.4141C61.7971 40.4141 73.2165 47.0102 73.2165 55.1461C73.2165 60.4513 68.3686 65.0908 61.1045 67.6862Z" fill="#FEEDE4" stroke="#231F20" stroke-width="2.36" stroke-miterlimit="10"/>
<path opacity="0.3" d="M67.9635 61.3145C67.9713 59.7883 65.638 58.5423 62.752 58.5315C59.8659 58.5208 57.52 59.7493 57.5122 61.2756C57.5044 62.8018 59.8377 64.0478 62.7237 64.0585C65.6098 64.0693 67.9557 62.8408 67.9635 61.3145Z" fill="#E85AA1"/>
<path opacity="0.3" d="M38.9768 60.8429C38.9844 59.3166 36.6509 58.0704 33.7649 58.0594C30.8788 58.0484 28.5331 59.2767 28.5255 60.8029C28.5179 62.3291 30.8513 63.5754 33.7374 63.5864C36.6234 63.5974 38.9692 62.3691 38.9768 60.8429Z" fill="#E85AA1"/>
<path d="M38.6307 55.4645C38.6585 52.5198 35.9116 50.1137 32.4953 50.0904C29.0791 50.0671 26.2871 52.4353 26.2593 55.38C26.2315 58.3248 28.9784 60.7308 32.3946 60.7541C35.8109 60.7775 38.6029 58.4092 38.6307 55.4645Z" fill="#231F20" stroke="#231F20" stroke-width="0.64" stroke-miterlimit="10"/>
<path d="M35.9535 56.5363C35.9978 55.3523 35.1251 54.3677 34.0042 54.3371C32.8834 54.3065 31.9389 55.2415 31.8946 56.4255C31.8503 57.6095 32.7231 58.5941 33.8439 58.6247C34.9647 58.6553 35.9092 57.7203 35.9535 56.5363Z" fill="white" stroke="#231F20" stroke-width="0.64" stroke-miterlimit="10"/>
<path d="M31.9985 54.8675C32.004 54.2845 31.4588 53.8081 30.7807 53.8034C30.1027 53.7988 29.5486 54.2676 29.5431 54.8506C29.5376 55.4336 30.0829 55.91 30.7609 55.9147C31.4389 55.9193 31.993 55.4505 31.9985 54.8675Z" fill="white" stroke="#231F20" stroke-width="0.64" stroke-miterlimit="10"/>
<path d="M69.1678 56.3395C69.1956 53.3948 66.4487 50.9887 63.0325 50.9654C59.6162 50.942 56.8242 53.3103 56.7964 56.255C56.7686 59.1998 59.5155 61.6058 62.9318 61.6291C66.348 61.6525 69.14 59.2842 69.1678 56.3395Z" fill="#231F20" stroke="#231F20" stroke-width="0.64" stroke-miterlimit="10"/>
<path d="M62.8384 58.0699C63.6508 57.4041 63.5336 56.1735 62.5768 55.3213C61.6199 54.4691 60.1857 54.318 59.3733 54.9839C58.5609 55.6497 58.678 56.8803 59.6349 57.7325C60.5917 58.5847 62.026 58.7357 62.8384 58.0699Z" fill="white" stroke="#231F20" stroke-width="0.64" stroke-miterlimit="10"/>
<path d="M65.8364 55.6419C65.8419 55.0589 65.2967 54.5825 64.6186 54.5778C63.9406 54.5732 63.3865 55.042 63.381 55.625C63.3755 56.208 63.9207 56.6844 64.5988 56.6891C65.2768 56.6937 65.8309 56.2249 65.8364 55.6419Z" fill="white" stroke="#231F20" stroke-width="0.64" stroke-miterlimit="10"/>
<path d="M38.6914 66.0048C40.4858 66.7108 43.2482 67.5446 46.6874 67.5782C51.4173 67.6252 55.0533 66.146 56.9972 65.1777" stroke="#231F20" stroke-width="1.09" stroke-miterlimit="10"/>
<path d="M51.4102 67.0808L54.4716 70.4831C54.7628 68.95 55.0618 67.4237 55.353 65.8906C54.5975 66.173 53.7869 66.442 52.9212 66.6908C52.4018 66.8387 51.8981 66.9665 51.4102 67.0808Z" fill="white" stroke="#231F20" stroke-width="1.09" stroke-miterlimit="10"/>
<path d="M100.651 49.9487C100.525 50.1504 99.8564 51.159 99.0851 51.1119C98.0935 51.0379 97.637 49.2897 97.3537 49.3368C96.8028 49.4578 98.3296 55.8254 97.6685 55.9934C97.1019 56.1481 95.8348 51.6498 94.4339 51.6834C91.8997 51.7439 95.0399 66.3281 85.5171 74.7263C82.196 77.6512 81.4011 76.2526 71.6973 82.526C67.6364 85.155 63.0403 88.4565 61.6866 87.5353C60.9704 87.0377 61.9227 85.8207 61.1751 84.8726C59.7742 83.0706 54.7295 85.3231 48.8112 85.5921C37.8246 86.0762 29.5217 79.433 25.6024 82.5865C24.902 83.1446 24.0363 84.2675 23.383 84.0523C22.6275 83.8304 23.1784 82.136 22.3757 80.2869C21.6202 78.5723 20.3531 78.2832 18.4249 76.6291C18.3698 76.5821 18.3147 76.535 18.2754 76.4879C22.7771 76.8914 29.5925 80.6702 37.9741 80.2869C43.8924 80.0247 48.945 77.7655 50.338 79.5675C51.0778 80.529 50.1334 81.746 50.8574 82.2436C52.1953 83.1648 56.7914 79.8499 60.8524 77.2343C70.5562 70.9609 71.3589 72.3594 74.6722 69.4345C84.195 61.0431 81.0627 46.4522 83.589 46.385C84.9898 46.3514 86.2569 50.8497 86.8236 50.7085C87.4847 50.5336 85.9579 44.1728 86.5088 44.0518C86.8 43.9913 87.2485 45.7597 88.2402 45.8135C89.0114 45.8605 89.6883 44.8654 89.8221 44.6637C91.9155 41.5169 87.0518 34.7997 86.1861 33.5961C82.6603 28.7415 78.8591 25.8166 79.591 25.0097C80.1025 24.4382 82.4557 25.4804 82.7154 25.0433C83.0302 24.5121 79.4965 23.053 76.9781 19.5633C76.2069 18.4741 75.837 17.6201 75.6166 17.1696C74.381 14.5877 70.9497 7.4872 64.63 2.32324C65.3462 2.47789 66.1017 2.67961 66.873 2.91495C78.8355 6.69378 84.7301 18.8842 86.4458 22.4613C86.6504 22.9253 87.0203 23.7658 87.8073 24.8551C90.3257 28.3448 93.8673 29.8038 93.5446 30.335C93.2691 30.7721 90.9317 29.7299 90.4202 30.3014C89.6883 31.1083 93.4895 34.0332 97.0153 38.8946C97.881 40.0914 102.745 46.8019 100.636 49.9554L100.651 49.9487Z" fill="#76BEEA"/>
<path d="M99.904 51.4142C98.9123 51.3469 98.4559 49.592 98.1647 49.6525C97.6216 49.7668 99.1484 56.1344 98.4795 56.3025C97.9128 56.4504 96.6536 51.9454 95.2449 51.9857C92.7107 52.053 95.8509 66.6438 86.3281 75.0352C83.0148 77.9601 82.2121 76.5616 72.5004 82.835C68.4473 85.4573 63.8512 88.7588 62.5055 87.8443C61.7814 87.3467 62.7258 86.123 61.986 85.1749C60.5852 83.3729 55.5483 85.6321 49.63 85.8944C38.6434 86.3852 30.3327 79.7487 26.4213 82.8888C25.7208 83.4469 24.8551 84.5697 24.2019 84.368C23.4464 84.1327 24.0052 82.445 23.2024 80.6027C22.4469 78.8813 21.1877 78.5989 19.2595 76.9381C15.23 73.4686 15.6944 70.3487 13.6245 70.147C11.2399 69.9117 9.22519 73.9124 8.36735 73.5493C7.39147 73.1324 9.67378 67.7533 9.15436 67.5785C8.65854 67.4104 6.66742 72.3995 5.34525 72.191C3.87355 71.9624 3.49579 65.3394 4.73139 59.5703C5.06193 58.0171 5.18783 58.0507 5.40033 56.7462C6.21881 51.8311 5.25081 46.768 3.93651 46.6066C3.1495 46.5125 2.26805 48.6507 2.03982 48.5767C1.74076 48.4691 3.1731 44.502 4.76285 41.1804C11.7987 26.455 24.9259 17.9291 22.9742 15.7237C22.0612 14.695 18.5827 15.8784 18.4568 15.448C18.2836 14.8967 24.2176 13.2157 29.4827 11.3935C38.1319 8.40137 38.1791 7.11038 45.9233 4.58219C53.4628 2.12797 57.201 1.99349 59.0269 2.00022C60.6875 2.00694 63.985 2.04727 67.7076 3.22395C79.67 6.99606 85.5568 19.1932 87.2804 22.7703C87.5007 23.2208 87.8707 24.0748 88.6498 25.1573C91.1603 28.6471 94.7019 30.1129 94.3792 30.6441C94.1116 31.0811 91.7663 30.0322 91.2548 30.6037C90.5229 31.4106 94.3319 34.3355 97.8499 39.1968C98.7156 40.3937 103.579 47.1109 101.478 50.2577C101.344 50.4594 100.675 51.4613 99.904 51.4142Z" stroke="#231F20" stroke-width="2.36" stroke-miterlimit="10"/>
<path d="M63.7722 80.6024C63.6777 80.6293 63.3078 80.7302 63.0324 80.5419C62.6467 80.2797 62.7176 79.6409 62.9379 79.2644C63.2449 78.7399 63.9689 78.5315 64.5434 78.6525C65.3855 78.8273 65.6767 79.6409 65.6924 79.6947C65.9364 80.5083 66.1725 81.3152 66.4165 82.1288C66.5818 82.6196 66.448 83.1441 66.086 83.4601C65.6059 83.877 64.7953 83.8635 64.2601 83.3659C64.1735 83.2584 63.906 82.8953 63.9532 82.391C63.9768 82.1758 64.0476 82.001 64.1106 81.8867C64.2365 81.7051 64.449 81.4295 64.7795 81.1941C65.6846 80.5554 66.3929 80.9386 67.5891 80.3066C68.1558 80.004 68.4706 79.6611 68.6516 79.3383C68.7618 79.1501 68.9428 78.8139 68.8562 78.4239C68.8326 78.3365 68.7775 78.1078 68.5729 77.933C68.2502 77.6708 67.778 77.7044 67.4553 77.8389C66.928 78.0675 66.7864 78.592 66.7706 78.6592C66.7156 78.9887 66.6526 79.4728 66.6998 80.0511C66.7549 80.8176 66.8651 82.3506 67.9197 82.8684C68.7618 83.2785 69.9738 82.976 70.1469 82.5255C70.2256 82.3103 70.0367 82.1489 69.7613 81.4429C69.596 81.0193 69.4937 80.6562 69.4386 80.4141C69.0372 80.394 68.6516 80.5823 68.447 80.9117C68.2187 81.2816 68.2502 81.759 68.5493 82.0884" stroke="#231F20" stroke-width="0.58" stroke-linecap="round" stroke-linejoin="round"/>
</svg>
